<svg width="868" height="788" viewBox="0 0 868 788" fill="none" xmlns="http://www.w3.org/2000/svg">
<path d="M472.5 425H506V787H431L472.5 425Z" fill="#A69474"/>
<path d="M539.114 425H505.614V787H580.614L539.114 425Z" fill="#A69474"/>
<path d="M471 436.5L522.5 439.5L542.5 452.5L563.305 636H448.309L455.577 574.5L459.577 535.5L471 436.5Z" fill="#7C6F57"/>
<path d="M387.5 448C387.5 525.5 394.077 531 455.577 574.5L459.577 535.5C427.577 514.5 410.5 502.5 417.5 441.5L387.5 448Z" fill="#7C6F57"/>
<path d="M622.5 447C604.502 485.305 583.569 514.655 551.5 531.884L547.375 495.5C567.502 486.246 573.299 479.479 583 457.5L622.5 447Z" fill="#7C6F57"/>
<path d="M468 365C468 410.84 430.84 448 385 448C339.16 448 302 410.84 302 365C302 319.16 339.16 282 385 282C430.84 282 468 319.16 468 365Z" fill="#40916C"/>
<path d="M411 261C411 306.84 373.84 344 328 344C282.16 344 245 306.84 245 261C245 215.16 282.16 178 328 178C373.84 178 411 215.16 411 261Z" fill="#40916C"/>
<path d="M494 178C494 223.84 456.84 261 411 261C365.16 261 328 223.84 328 178C328 132.16 365.16 95 411 95C456.84 95 494 132.16 494 178Z" fill="#40916C"/>
<path d="M589 126C589 171.84 551.84 209 506 209C460.16 209 423 171.84 423 126C423 80.1604 460.16 43 506 43C551.84 43 589 80.1604 589 126Z" fill="#40916C"/>
<path d="M670 174C670 219.84 632.84 257 587 257C541.16 257 504 219.84 504 174C504 128.16 541.16 91 587 91C632.84 91 670 128.16 670 174Z" fill="#40916C"/>
<path d="M738 214C738 259.84 700.84 297 655 297C609.16 297 572 259.84 572 214C572 168.16 609.16 131 655 131C700.84 131 738 168.16 738 214Z" fill="#40916C"/>
<path d="M670 309C670 381.349 596.575 440 506 440C415.425 440 342 381.349 342 309C342 236.651 415.425 178 506 178C596.575 178 670 236.651 670 309Z" fill="#40916C"/>
<path d="M660 377C660 422.84 622.84 460 577 460C531.16 460 494 422.84 494 377C494 331.16 531.16 294 577 294C622.84 294 660 331.16 660 377Z" fill="#40916C"/>
<path d="M717 365C717 410.84 679.84 448 634 448C588.16 448 551 410.84 551 365C551 319.16 588.16 282 634 282C679.84 282 717 319.16 717 365Z" fill="#40916C"/>
<path d="M782 309C782 354.84 744.84 392 699 392C653.16 392 616 354.84 616 309C616 263.16 653.16 226 699 226C744.84 226 782 263.16 782 309Z" fill="#40916C"/>
<path d="M494 309C494 354.84 456.84 392 411 392C365.16 392 328 354.84 328 309C328 263.16 365.16 226 411 226C456.84 226 494 263.16 494 309Z" fill="#52B788"/>
<path d="M435 214C435 259.84 397.84 297 352 297C306.16 297 269 259.84 269 214C269 168.16 306.16 131 352 131C397.84 131 435 168.16 435 214Z" fill="#52B788"/>
<path d="M502 135C502 180.84 464.84 218 419 218C373.16 218 336 180.84 336 135C336 89.1604 373.16 52 419 52C464.84 52 502 89.1604 502 135Z" fill="#52B788"/>
<path d="M597 83C597 128.84 559.84 166 514 166C468.16 166 431 128.84 431 83C431 37.1604 468.16 0 514 0C559.84 0 597 37.1604 597 83Z" fill="#52B788"/>
<path d="M678 131C678 176.84 640.84 214 595 214C549.16 214 512 176.84 512 131C512 85.1604 549.16 48 595 48C640.84 48 678 85.1604 678 131Z" fill="#52B788"/>
<path d="M746 171C746 216.84 708.84 254 663 254C617.16 254 580 216.84 580 171C580 125.16 617.16 88 663 88C708.84 88 746 125.16 746 171Z" fill="#52B788"/>
<path d="M677.969 229.17C676.571 301.506 602.026 358.726 511.468 356.976C420.91 355.225 348.632 295.166 350.031 222.83C351.429 150.494 425.974 93.2737 516.532 95.0245C607.09 96.7752 679.368 156.834 677.969 229.17Z" fill="#52B788"/>
<path d="M699 309C699 354.84 661.84 392 616 392C570.16 392 533 354.84 533 309C533 263.16 570.16 226 616 226C661.84 226 699 263.16 699 309Z" fill="#52B788"/>
<path d="M595 301C595 346.84 557.84 384 512 384C466.16 384 429 346.84 429 301C429 255.16 466.16 218 512 218C557.84 218 595 255.16 595 301Z" fill="#52B788"/>
<path d="M782 237C782 282.84 744.84 320 699 320C653.16 320 616 282.84 616 237C616 191.16 653.16 154 699 154C744.84 154 782 191.16 782 237Z" fill="#52B788"/>
<path d="M680 238C680 283.84 642.84 321 597 321C551.16 321 514 283.84 514 238C514 192.16 551.16 155 597 155C642.84 155 680 192.16 680 238Z" fill="#95D5B2"/>
<path d="M746 171C746 216.84 708.84 254 663 254C617.16 254 580 216.84 580 171C580 125.16 617.16 88 663 88C708.84 88 746 125.16 746 171Z" fill="#95D5B2"/>
<path d="M782 237C782 282.84 744.84 320 699 320C653.16 320 616 282.84 616 237C616 191.16 653.16 154 699 154C744.84 154 782 191.16 782 237Z" fill="#95D5B2"/>
<path d="M125.888 562.178H151.686V786.848H93.9304L125.888 562.178Z" fill="#A69474"/>
<path d="M177.186 562.178H151.389V786.848H209.144L177.186 562.178Z" fill="#A69474"/>
<path d="M177.186 562.178H151.389V786.848H209.144L177.186 562.178Z" fill="#A69474"/>
<path d="M124.733 569.316L164.392 571.178L179.793 579.246L195.815 693.132H107.259L124.733 569.316Z" fill="#7E715B"/>
<circle cx="77.6045" cy="534.491" r="51.5126" fill="#40916C"/>
<circle cx="51.5126" cy="489.613" r="51.5126" fill="#40916C"/>
<circle cx="77.6045" cy="431.168" r="51.5126" fill="#40916C"/>
<circle cx="123.526" cy="422.818" r="51.5126" fill="#40916C"/>
<circle cx="175.709" cy="415.513" r="51.5126" fill="#40916C"/>
<circle cx="226.85" cy="447.866" r="51.5126" fill="#40916C"/>
<ellipse cx="139.356" cy="499.574" rx="101.784" ry="81.303" fill="#40916C"/>
<circle cx="191.365" cy="534.491" r="51.5126" fill="#40916C"/>
<circle cx="243.548" cy="534.491" r="51.5126" fill="#40916C"/>
<circle cx="260.247" cy="489.613" r="51.5126" fill="#40916C"/>
<circle cx="203.091" cy="492.476" r="51.5126" fill="#52B788"/>
<circle cx="226.571" cy="448.124" r="51.5126" fill="#52B788"/>
<circle cx="260.487" cy="489.867" r="51.5126" fill="#52B788"/>
<path d="M760.38 636.625H782.037V787.077H733.551L760.38 636.625Z" fill="#A69474"/>
<path d="M803.445 636.625H781.788V787.077H830.274L803.445 636.625Z" fill="#A69474"/>
<path d="M803.445 636.625H781.788V787.077H830.274L803.445 636.625Z" fill="#A69474"/>
<path d="M759.41 641.404L792.704 642.651L805.634 648.054L819.084 724.319H744.741L759.41 641.404Z" fill="#7E715B"/>
<path d="M850.082 667.806C872.211 673.896 871.994 648.595 859.464 626.303C846.933 604.011 822.138 562.222 780.631 559.859C741.815 557.65 682.497 653.306 697.629 662.564C709.734 669.97 730.746 663.405 749.66 651.747C755.335 662.033 764.618 671.526 778.236 672.348C791.854 673.171 799.082 661.005 809.8 651.747C813.583 655.176 830.35 662.375 850.082 667.806Z" fill="#52B788"/>
<path d="M849.871 611.896C871.999 617.986 871.783 592.686 859.252 570.394C846.722 548.102 821.926 506.313 780.419 503.95C741.604 501.741 682.286 597.397 697.417 606.654C709.523 614.061 730.535 607.495 749.449 595.838C755.124 606.124 764.407 615.616 778.025 616.439C791.643 617.262 798.87 605.095 809.589 595.838C813.371 599.266 830.139 606.466 849.871 611.896Z" fill="#40916C"/>
<path d="M849.871 555.984C871.999 562.074 871.783 536.773 859.252 514.482C846.722 492.19 821.926 450.4 780.419 448.038C741.604 445.828 682.286 541.484 697.417 550.742C709.523 558.148 730.535 551.583 749.449 539.925C755.124 550.211 764.407 559.704 778.025 560.527C791.643 561.35 798.87 549.183 809.589 539.925C813.371 543.354 830.139 550.553 849.871 555.984Z" fill="#52B788"/>
</svg>
